<?xml version="1.0" encoding="UTF-8"?>
<!DOCTYPE svg PUBLIC "-//W3C//DTD SVG 1.1//EN" "http://www.w3.org/Graphics/SVG/1.1/DTD/svg11.dtd">
<svg xmlns="http://www.w3.org/2000/svg" version="1.1" width="512px" height="512px" style="shape-rendering:geometricPrecision; text-rendering:geometricPrecision; image-rendering:optimizeQuality; fill-rule:evenodd; clip-rule:evenodd" xmlns:xlink="http://www.w3.org/1999/xlink">
<g><path style="opacity:1" fill="#344430" d="M 306.5,43.5 C 309.491,43.1663 311.824,44.1663 313.5,46.5C 310.982,45.7362 308.649,44.7362 306.5,43.5 Z"/></g>
<g><path style="opacity:1" fill="#394a2d" d="M 274.5,47.5 C 257.668,41.0026 246.834,46.6692 242,64.5C 237.712,67.7216 233.545,71.0549 229.5,74.5C 230.203,72.2843 231.536,70.451 233.5,69C 236,67.1667 238.5,65.3333 241,63.5C 243.103,56.7872 246.603,50.9539 251.5,46C 257.978,43.632 264.645,42.9653 271.5,44C 272.71,45.0391 273.71,46.2058 274.5,47.5 Z"/></g>
<g><path style="opacity:1" fill="#5c8c3f" d="M 293.5,43.5 C 297.833,43.5 302.167,43.5 306.5,43.5C 308.649,44.7362 310.982,45.7362 313.5,46.5C 318.067,54.9444 324.067,62.2777 331.5,68.5C 332.08,70.7488 333.413,72.4154 335.5,73.5C 339.087,78.3351 341.92,83.6684 344,89.5C 344.873,94.4623 345.373,99.4623 345.5,104.5C 344.088,118.886 342.254,133.219 340,147.5C 338.14,151.22 336.307,154.886 334.5,158.5C 332.577,161.603 330.41,164.603 328,167.5C 327.329,168.252 326.496,168.586 325.5,168.5C 322.516,171.326 319.183,173.659 315.5,175.5C 302.77,179.027 289.77,180.36 276.5,179.5C 276.167,179.5 275.833,179.5 275.5,179.5C 266.004,177.259 257.004,173.592 248.5,168.5C 243.271,166.211 239.271,162.545 236.5,157.5C 235.92,155.251 234.587,153.585 232.5,152.5C 231.021,149.899 230.021,147.066 229.5,144C 229.528,142.93 229.861,142.097 230.5,141.5C 244.009,143.221 257.342,142.221 270.5,138.5C 270.833,138.5 271.167,138.5 271.5,138.5C 280.403,136.865 288.737,133.865 296.5,129.5C 302.538,127.875 308.205,125.375 313.5,122C 314.98,119.765 314.647,117.932 312.5,116.5C 312.389,115.883 312.056,115.383 311.5,115C 308.833,114.333 306.167,114.333 303.5,115C 291.227,119.143 278.894,122.643 266.5,125.5C 255.266,127.526 243.933,128.526 232.5,128.5C 231.833,128.5 231.5,128.167 231.5,127.5C 229.66,123.931 226.993,121.264 223.5,119.5C 222.524,113.695 224.024,108.695 228,104.5C 229.411,107.578 231.744,109.578 235,110.5C 235.5,110.167 236,109.833 236.5,109.5C 230.937,108.227 230.603,107.06 235.5,106C 231.816,106.239 229.149,104.739 227.5,101.5C 227.624,100.893 227.957,100.56 228.5,100.5C 229.5,100.5 230.5,100.5 231.5,100.5C 231.917,101.124 232.584,101.457 233.5,101.5C 238.819,100.312 244.152,99.3125 249.5,98.5C 251.167,98.5 252.833,98.5 254.5,98.5C 253.915,94.6635 252.248,91.3301 249.5,88.5C 252.248,88.5983 252.914,87.5983 251.5,85.5C 249.512,82.3041 246.512,80.4708 242.5,80C 237.833,79.6667 233.167,79.3333 228.5,79C 231.976,77.7458 235.642,77.0791 239.5,77C 236.633,76.971 234.133,76.1376 232,74.5C 230.608,76.8418 229.775,76.8418 229.5,74.5C 233.545,71.0549 237.712,67.7216 242,64.5C 246.834,46.6692 257.668,41.0026 274.5,47.5C 275.8,48.8267 277.133,50.16 278.5,51.5C 277.915,54.5027 277.248,57.5027 276.5,60.5C 274.157,61.9226 271.657,62.9226 269,63.5C 257.815,59.8394 247.649,61.6727 238.5,69C 242.935,67.1845 247.602,65.5178 252.5,64C 257.029,63.3206 261.529,63.4873 266,64.5C 267.326,64.7549 268.326,65.4216 269,66.5C 282.385,57.1738 295.718,57.1738 309,66.5C 309.667,65.8333 309.667,65.1667 309,64.5C 300.028,57.6306 290.195,55.9639 279.5,59.5C 278.398,56.8097 278.564,54.1431 280,51.5C 283.696,47.2685 288.196,44.6018 293.5,43.5 Z"/></g>
<g><path style="opacity:1" fill="#3e4f34" d="M 313.5,46.5 C 314.496,46.4142 315.329,46.7476 316,47.5C 320.251,55.2405 325.418,62.2405 331.5,68.5C 324.067,62.2777 318.067,54.9444 313.5,46.5 Z"/></g>
<g><path style="opacity:1" fill="#2c4b22" d="M 293.5,43.5 C 288.196,44.6018 283.696,47.2685 280,51.5C 278.564,54.1431 278.398,56.8097 279.5,59.5C 290.195,55.9639 300.028,57.6306 309,64.5C 309.667,65.1667 309.667,65.8333 309,66.5C 295.718,57.1738 282.385,57.1738 269,66.5C 268.326,65.4216 267.326,64.7549 266,64.5C 261.529,63.4873 257.029,63.3206 252.5,64C 247.602,65.5178 242.935,67.1845 238.5,69C 247.649,61.6727 257.815,59.8394 269,63.5C 271.657,62.9226 274.157,61.9226 276.5,60.5C 277.248,57.5027 277.915,54.5027 278.5,51.5C 277.133,50.16 275.8,48.8267 274.5,47.5C 276.258,47.8769 277.925,48.5435 279.5,49.5C 283.235,45.3649 287.902,43.3649 293.5,43.5 Z"/></g>
<g><path style="opacity:1" fill="#3c462d" d="M 331.5,68.5 C 333.587,69.5846 334.92,71.2512 335.5,73.5C 333.413,72.4154 332.08,70.7488 331.5,68.5 Z"/></g>
<g><path style="opacity:1" fill="#294822" d="M 305.5,84.5 C 307.284,85.8934 309.284,86.3934 311.5,86C 312.5,83.9093 311.833,82.2426 309.5,81C 298.266,74.3922 286.266,72.7255 273.5,76C 264.629,79.5393 259.463,86.0393 258,95.5C 257.621,88.7531 260.121,83.2531 265.5,79C 263.833,79.3333 262.167,79.6667 260.5,80C 261.879,76.8078 263.379,73.6412 265,70.5C 264.667,72.8333 264.333,75.1667 264,77.5C 276.166,71.9778 288.666,71.1445 301.5,75C 305.873,76.7131 309.707,79.2131 313,82.5C 313.564,87.9356 311.397,89.4356 306.5,87C 305.748,86.3292 305.414,85.4959 305.5,84.5 Z"/></g>
<g><path style="opacity:1" fill="#314d26" d="M 305.5,84.5 C 293.843,79.1603 282.176,79.327 270.5,85C 280.5,85.3333 290.5,85.6667 300.5,86C 302.058,86.21 303.391,86.71 304.5,87.5C 300.4,87.7633 296.4,87.4299 292.5,86.5C 287.167,86.5 281.833,86.5 276.5,86.5C 273.15,86.335 269.817,86.5017 266.5,87C 263.739,89.8522 261.739,93.1855 260.5,97C 261.682,98.7351 263.349,99.7351 265.5,100C 269.486,100.499 273.486,100.666 277.5,100.5C 271.861,101.966 266.194,101.633 260.5,99.5C 259.5,99.8333 258.833,100.5 258.5,101.5C 268.483,102.666 278.483,102.832 288.5,102C 291.974,100.581 295.307,99.248 298.5,98C 296.17,100.167 293.503,101.834 290.5,103C 281.893,104.339 273.226,104.839 264.5,104.5C 265.287,107.408 266.62,110.074 268.5,112.5C 266.376,111.969 264.876,110.635 264,108.5C 263.51,107.207 263.343,105.873 263.5,104.5C 260.677,104.975 258.677,103.975 257.5,101.5C 258.823,96.7278 260.823,92.2278 263.5,88C 263.355,87.228 263.022,86.5613 262.5,86C 267.172,85.1622 271.505,83.4956 275.5,81C 284.222,78.0251 292.888,78.0251 301.5,81C 303.324,81.66 304.657,82.8267 305.5,84.5 Z"/></g>
<g><path style="opacity:1" fill="#5d8d3f" d="M 251.5,85.5 C 252.914,87.5983 252.248,88.5983 249.5,88.5C 243.347,87.3467 237.014,87.18 230.5,88C 228.559,89.9028 226.226,90.7361 223.5,90.5C 222.277,85.6479 223.944,82.4812 228.5,81C 236.83,79.5028 244.497,81.0028 251.5,85.5 Z"/></g>
<g><path style="opacity:1" fill="#131413" d="M 276.5,86.5 C 281.833,86.5 287.167,86.5 292.5,86.5C 293.5,88.5 294.5,90.5 295.5,92.5C 294.833,93.1667 294.167,93.8333 293.5,94.5C 292.417,94.5394 291.417,94.8728 290.5,95.5C 289.468,93.9604 288.135,93.4604 286.5,94C 285.359,94.7412 285.359,95.5745 286.5,96.5C 283.489,97.8528 280.489,99.1862 277.5,100.5C 274.261,95.9961 273.928,91.3295 276.5,86.5 Z"/></g>
<g><path style="opacity:1" fill="#f0f0f0" d="M 276.5,86.5 C 273.928,91.3295 274.261,95.9961 277.5,100.5C 273.486,100.666 269.486,100.499 265.5,100C 263.349,99.7351 261.682,98.7351 260.5,97C 261.739,93.1855 263.739,89.8522 266.5,87C 269.817,86.5017 273.15,86.335 276.5,86.5 Z"/></g>
<g><path style="opacity:1" fill="#eeeeed" d="M 292.5,86.5 C 296.4,87.4299 300.4,87.7633 304.5,87.5C 304.5,88.1667 304.5,88.8333 304.5,89.5C 301.208,89.6469 298.208,90.6469 295.5,92.5C 294.5,90.5 293.5,88.5 292.5,86.5 Z"/></g>
<g><path style="opacity:1" fill="#121211" d="M 247.5,88.5 C 249.181,91.582 249.848,94.9153 249.5,98.5C 244.152,99.3125 238.819,100.312 233.5,101.5C 232.584,101.457 231.917,101.124 231.5,100.5C 230.51,97.3756 230.51,94.0423 231.5,90.5C 236.532,88.6301 241.865,87.9634 247.5,88.5 Z"/></g>
<g><path style="opacity:1" fill="#cecdcf" d="M 286.5,87.5 C 288.346,87.2222 289.68,87.8888 290.5,89.5C 289.68,91.1112 288.346,91.7778 286.5,91.5C 286.5,90.1667 286.5,88.8333 286.5,87.5 Z"/></g>
<g><path style="opacity:1" fill="#edeeed" d="M 279.5,89.5 C 283.35,89.7007 284.35,91.5341 282.5,95C 278.537,95.1177 277.537,93.2843 279.5,89.5 Z"/></g>
<g><path style="opacity:1" fill="#f3f3f3" d="M 231.5,90.5 C 230.51,94.0423 230.51,97.3756 231.5,100.5C 230.5,100.5 229.5,100.5 228.5,100.5C 226.334,98.1633 224.334,95.6633 222.5,93C 225.539,92.6466 228.205,91.4799 230.5,89.5C 231.107,89.6236 231.44,89.9569 231.5,90.5 Z"/></g>
<g><path style="opacity:1" fill="#c4c3c3" d="M 242.5,89.5 C 245.166,89.0658 246.333,90.0658 246,92.5C 242.403,94.0661 241.237,93.0661 242.5,89.5 Z"/></g>
<g><path style="opacity:1" fill="#e2e2e2" d="M 234.5,91.5 C 239.159,91.0146 240.492,92.848 238.5,97C 234.272,97.2717 232.938,95.4383 234.5,91.5 Z"/></g>
<g><path style="opacity:1" fill="#e2e2e2" d="M 247.5,88.5 C 248.167,88.5 248.833,88.5 249.5,88.5C 252.248,91.3301 253.915,94.6635 254.5,98.5C 252.833,98.5 251.167,98.5 249.5,98.5C 249.848,94.9153 249.181,91.582 247.5,88.5 Z"/></g>
<g><path style="opacity:1" fill="#42543a" d="M 304.5,89.5 C 300.98,91.4258 297.313,93.0924 293.5,94.5C 294.167,93.8333 294.833,93.1667 295.5,92.5C 298.208,90.6469 301.208,89.6469 304.5,89.5 Z"/></g>
<g><path style="opacity:1" fill="#cfcfce" d="M 242.5,95.5 C 245.674,95.9522 246.007,96.9522 243.5,98.5C 241.481,97.8671 241.147,96.8671 242.5,95.5 Z"/></g>
<g><path style="opacity:1" fill="#4a5842" d="M 335.5,73.5 C 344.002,81.3683 347.668,91.2017 346.5,103C 345.879,117.259 344.379,131.426 342,145.5C 340.497,150.519 337.997,154.852 334.5,158.5C 336.307,154.886 338.14,151.22 340,147.5C 342.254,133.219 344.088,118.886 345.5,104.5C 345.373,99.4623 344.873,94.4623 344,89.5C 341.92,83.6684 339.087,78.3351 335.5,73.5 Z"/></g>
<g><path style="opacity:1" fill="#2a4724" d="M 252.5,102.5 C 253.376,102.369 254.043,102.702 254.5,103.5C 252.167,105.5 249.833,107.5 247.5,109.5C 246.707,108.645 247.04,107.811 248.5,107C 245.833,106.667 243.167,106.333 240.5,106C 244.953,105.975 248.953,104.808 252.5,102.5 Z"/></g>
<g><path style="opacity:1" fill="#3a452c" d="M 229.5,74.5 C 229.775,76.8418 230.608,76.8418 232,74.5C 234.133,76.1376 236.633,76.971 239.5,77C 235.642,77.0791 231.976,77.7458 228.5,79C 233.167,79.3333 237.833,79.6667 242.5,80C 246.512,80.4708 249.512,82.3041 251.5,85.5C 244.497,81.0028 236.83,79.5028 228.5,81C 223.944,82.4812 222.277,85.6479 223.5,90.5C 226.226,90.7361 228.559,89.9028 230.5,88C 237.014,87.18 243.347,87.3467 249.5,88.5C 248.833,88.5 248.167,88.5 247.5,88.5C 241.865,87.9634 236.532,88.6301 231.5,90.5C 231.44,89.9569 231.107,89.6236 230.5,89.5C 228.205,91.4799 225.539,92.6466 222.5,93C 224.334,95.6633 226.334,98.1633 228.5,100.5C 227.957,100.56 227.624,100.893 227.5,101.5C 229.149,104.739 231.816,106.239 235.5,106C 230.603,107.06 230.937,108.227 236.5,109.5C 236,109.833 235.5,110.167 235,110.5C 231.744,109.578 229.411,107.578 228,104.5C 224.024,108.695 222.524,113.695 223.5,119.5C 222.535,115.618 221.535,115.618 220.5,119.5C 221.251,121.996 222.251,124.33 223.5,126.5C 220.894,124.961 219.561,122.628 219.5,119.5C 221.154,113.703 223.487,108.203 226.5,103C 220.76,95.4385 219.927,87.2718 224,78.5C 225.432,76.5612 227.265,75.2279 229.5,74.5 Z"/></g>
<g><path style="opacity:1" fill="#27441e" d="M 307.5,111.5 C 313.172,110.883 316.339,113.216 317,118.5C 316.215,116.714 315.049,115.214 313.5,114C 310.949,113.998 308.949,113.164 307.5,111.5 Z"/></g>
<g><path style="opacity:1" fill="#26481d" d="M 268.5,112.5 C 272.6,114.479 276.934,115.979 281.5,117C 276.227,117.966 271.894,116.466 268.5,112.5 Z"/></g>
<g><path style="opacity:1" fill="#452f16" d="M 312.5,116.5 C 303.928,117.111 295.595,118.944 287.5,122C 280.437,122.856 273.437,124.023 266.5,125.5C 278.894,122.643 291.227,119.143 303.5,115C 306.167,114.333 308.833,114.333 311.5,115C 312.056,115.383 312.389,115.883 312.5,116.5 Z"/></g>
<g><path style="opacity:1" fill="#3e2915" d="M 312.5,116.5 C 314.647,117.932 314.98,119.765 313.5,122C 308.205,125.375 302.538,127.875 296.5,129.5C 301.773,126.779 307.106,123.946 312.5,121C 313.413,119.586 313.413,118.086 312.5,116.5 Z"/></g>
<g><path style="opacity:1" fill="#4f542f" d="M 223.5,119.5 C 226.993,121.264 229.66,123.931 231.5,127.5C 230.761,127.631 230.094,127.464 229.5,127C 227.179,124.695 225.179,122.195 223.5,119.5 Z"/></g>
<g><path style="opacity:1" fill="#934214" d="M 223.5,119.5 C 225.179,122.195 227.179,124.695 229.5,127C 230.094,127.464 230.761,127.631 231.5,127.5C 231.5,128.167 231.833,128.5 232.5,128.5C 240.704,129.539 249.037,130.706 257.5,132C 250.548,133.397 243.548,133.73 236.5,133C 231.689,131.681 227.355,129.514 223.5,126.5C 222.251,124.33 221.251,121.996 220.5,119.5C 221.535,115.618 222.535,115.618 223.5,119.5 Z"/></g>
<g><path style="opacity:1" fill="#602513" d="M 230.5,140.5 C 229.833,140.5 229.167,140.5 228.5,140.5C 222.016,138.229 221.016,134.563 225.5,129.5C 224.807,128.482 224.141,127.482 223.5,126.5C 227.355,129.514 231.689,131.681 236.5,133C 243.548,133.73 250.548,133.397 257.5,132C 249.037,130.706 240.704,129.539 232.5,128.5C 243.933,128.526 255.266,127.526 266.5,125.5C 261.464,127.191 256.131,128.691 250.5,130C 258.838,130.191 267.171,129.857 275.5,129C 286.268,126.299 296.768,122.799 307,118.5C 307.5,118.833 308,119.167 308.5,119.5C 285.266,129.796 260.933,134.963 235.5,135C 232.523,133.682 229.69,132.182 227,130.5C 224.793,131.997 224.126,133.997 225,136.5C 226.5,138.469 228.333,139.802 230.5,140.5 Z"/></g>
<g><path style="opacity:1" fill="#513119" d="M 296.5,129.5 C 288.737,133.865 280.403,136.865 271.5,138.5C 271.62,137.414 272.287,136.747 273.5,136.5C 277.32,135.795 280.986,134.629 284.5,133C 283.833,132.667 283.167,132.333 282.5,132C 287.276,131.654 291.942,130.821 296.5,129.5 Z"/></g>
<g><path style="opacity:1" fill="#934214" d="M 312.5,116.5 C 313.413,118.086 313.413,119.586 312.5,121C 307.106,123.946 301.773,126.779 296.5,129.5C 291.942,130.821 287.276,131.654 282.5,132C 283.167,132.333 283.833,132.667 284.5,133C 280.986,134.629 277.32,135.795 273.5,136.5C 272.287,136.747 271.62,137.414 271.5,138.5C 271.167,138.5 270.833,138.5 270.5,138.5C 257.233,140.139 243.9,140.805 230.5,140.5C 228.333,139.802 226.5,138.469 225,136.5C 224.126,133.997 224.793,131.997 227,130.5C 229.69,132.182 232.523,133.682 235.5,135C 260.933,134.963 285.266,129.796 308.5,119.5C 308,119.167 307.5,118.833 307,118.5C 296.768,122.799 286.268,126.299 275.5,129C 267.171,129.857 258.838,130.191 250.5,130C 256.131,128.691 261.464,127.191 266.5,125.5C 273.437,124.023 280.437,122.856 287.5,122C 295.595,118.944 303.928,117.111 312.5,116.5 Z"/></g>
<g><path style="opacity:1" fill="#4b3117" d="M 270.5,138.5 C 257.342,142.221 244.009,143.221 230.5,141.5C 230.5,141.167 230.5,140.833 230.5,140.5C 243.9,140.805 257.233,140.139 270.5,138.5 Z"/></g>
<g><path style="opacity:1" fill="#405232" d="M 228.5,140.5 C 229.167,140.5 229.833,140.5 230.5,140.5C 230.5,140.833 230.5,141.167 230.5,141.5C 229.861,142.097 229.528,142.93 229.5,144C 230.021,147.066 231.021,149.899 232.5,152.5C 231.542,152.047 230.708,151.381 230,150.5C 228.268,147.21 227.768,143.876 228.5,140.5 Z"/></g>
<g><path style="opacity:1" fill="#304327" d="M 232.5,152.5 C 234.587,153.585 235.92,155.251 236.5,157.5C 234.413,156.415 233.08,154.749 232.5,152.5 Z"/></g>
<g><path style="opacity:1" fill="#010101" d="M 325.5,168.5 C 325.414,169.496 325.748,170.329 326.5,171C 341.46,180.063 355.627,190.23 369,201.5C 373.956,220.509 376.122,239.842 375.5,259.5C 375.5,261.5 375.5,263.5 375.5,265.5C 375.167,265.5 374.833,265.5 374.5,265.5C 372.901,265.232 371.568,265.566 370.5,266.5C 358.934,268.299 347.267,268.966 335.5,268.5C 335.667,281.171 335.5,293.838 335,306.5C 331.673,315.157 328.34,323.823 325,332.5C 323.686,336.754 322.853,341.087 322.5,345.5C 321.833,346.167 321.167,346.833 320.5,347.5C 300.041,340.515 279.375,334.015 258.5,328C 253.937,326.525 249.27,325.692 244.5,325.5C 244.5,325.167 244.5,324.833 244.5,324.5C 246.361,317.416 248.528,310.416 251,303.5C 251.499,297.843 251.666,292.176 251.5,286.5C 250.903,278.116 248.737,270.116 245,262.5C 239.645,259.88 234.145,257.546 228.5,255.5C 228.167,255.5 227.833,255.5 227.5,255.5C 227.077,254.735 226.743,253.902 226.5,253C 229.884,240.962 232.718,228.795 235,216.5C 237.271,208.625 240.104,200.959 243.5,193.5C 247.464,191.851 251.131,189.684 254.5,187C 260.61,185.943 266.277,183.776 271.5,180.5C 272.708,179.766 274.041,179.433 275.5,179.5C 275.833,179.5 276.167,179.5 276.5,179.5C 276.5,180.167 276.5,180.833 276.5,181.5C 274.915,197.121 274.249,212.787 274.5,228.5C 275.167,230.833 275.833,233.167 276.5,235.5C 273.975,236.048 271.641,237.048 269.5,238.5C 268.809,241.815 267.809,244.981 266.5,248C 266.387,249.699 267.053,250.866 268.5,251.5C 269.343,253.173 270.676,254.34 272.5,255C 275.817,255.498 279.15,255.665 282.5,255.5C 284.371,255.141 285.871,254.141 287,252.5C 287.337,249.139 287.837,245.806 288.5,242.5C 288.152,240.303 287.152,238.47 285.5,237C 282.964,236.814 280.631,236.314 278.5,235.5C 279.167,234.5 279.833,233.5 280.5,232.5C 288.094,220.974 295.428,209.307 302.5,197.5C 305.313,194.554 307.646,191.221 309.5,187.5C 310.338,187.158 310.672,186.492 310.5,185.5C 313.207,182.753 314.873,179.42 315.5,175.5C 319.183,173.659 322.516,171.326 325.5,168.5 Z"/></g>
<g><path style="opacity:1" fill="#3e5234" d="M 248.5,168.5 C 257.004,173.592 266.004,177.259 275.5,179.5C 274.041,179.433 272.708,179.766 271.5,180.5C 266.226,178.457 260.893,176.291 255.5,174C 252.734,172.629 250.401,170.796 248.5,168.5 Z"/></g>
<g><path style="opacity:1" fill="#325026" d="M 315.5,175.5 C 314.873,179.42 313.207,182.753 310.5,185.5C 310.877,183.742 311.544,182.075 312.5,180.5C 311,180.167 309.5,179.833 308,179.5C 299.589,181.162 291.089,181.828 282.5,181.5C 281.167,181.5 279.833,181.5 278.5,181.5C 277.833,181.5 277.167,181.5 276.5,181.5C 276.5,180.833 276.5,180.167 276.5,179.5C 289.77,180.36 302.77,179.027 315.5,175.5 Z"/></g>
<g><path style="opacity:1" fill="#4a7332" d="M 310.5,185.5 C 310.672,186.492 310.338,187.158 309.5,187.5C 309.719,186.325 309.386,185.325 308.5,184.5C 302.634,186.4 296.634,186.9 290.5,186C 287.316,185.246 284.649,183.746 282.5,181.5C 291.089,181.828 299.589,181.162 308,179.5C 309.5,179.833 311,180.167 312.5,180.5C 311.544,182.075 310.877,183.742 310.5,185.5 Z"/></g>
<g><path style="opacity:1" fill="#5c8c3e" d="M 278.5,181.5 C 279.833,181.5 281.167,181.5 282.5,181.5C 284.649,183.746 287.316,185.246 290.5,186C 296.634,186.9 302.634,186.4 308.5,184.5C 309.386,185.325 309.719,186.325 309.5,187.5C 307.646,191.221 305.313,194.554 302.5,197.5C 302.167,197.5 301.833,197.5 301.5,197.5C 298.606,198.278 295.606,199.778 292.5,202C 288.5,202.667 284.5,202.667 280.5,202C 278.959,199.323 277.959,196.49 277.5,193.5C 278.162,189.534 278.495,185.534 278.5,181.5 Z"/></g>
<g><path style="opacity:1" fill="#070606" d="M 277.5,193.5 C 277.959,196.49 278.959,199.323 280.5,202C 284.5,202.667 288.5,202.667 292.5,202C 295.606,199.778 298.606,198.278 301.5,197.5C 294.167,208.833 286.833,220.167 279.5,231.5C 278.85,231.196 278.183,230.863 277.5,230.5C 276.508,226.217 276.174,221.884 276.5,217.5C 276.23,209.445 276.563,201.445 277.5,193.5 Z"/></g>
<g><path style="opacity:1" fill="#bcb36f" d="M 276.5,181.5 C 277.167,181.5 277.833,181.5 278.5,181.5C 278.495,185.534 278.162,189.534 277.5,193.5C 276.563,201.445 276.23,209.445 276.5,217.5C 275.833,221.167 275.167,224.833 274.5,228.5C 274.249,212.787 274.915,197.121 276.5,181.5 Z"/></g>
<g><path style="opacity:1" fill="#cebf6d" d="M 301.5,197.5 C 301.833,197.5 302.167,197.5 302.5,197.5C 295.428,209.307 288.094,220.974 280.5,232.5C 279.833,232.5 279.5,232.167 279.5,231.5C 286.833,220.167 294.167,208.833 301.5,197.5 Z"/></g>
<g><path style="opacity:1" fill="#93886b" d="M 276.5,217.5 C 276.174,221.884 276.508,226.217 277.5,230.5C 278.183,230.863 278.85,231.196 279.5,231.5C 279.5,232.167 279.833,232.5 280.5,232.5C 279.833,233.5 279.167,234.5 278.5,235.5C 277.778,235.918 277.278,236.584 277,237.5C 276.536,236.906 276.369,236.239 276.5,235.5C 275.833,233.167 275.167,230.833 274.5,228.5C 275.167,224.833 275.833,221.167 276.5,217.5 Z"/></g>
<g><path style="opacity:1" fill="#44704c" d="M 276.5,235.5 C 276.369,236.239 276.536,236.906 277,237.5C 277.278,236.584 277.778,235.918 278.5,235.5C 280.631,236.314 282.964,236.814 285.5,237C 287.152,238.47 288.152,240.303 288.5,242.5C 287.837,245.806 287.337,249.139 287,252.5C 285.871,254.141 284.371,255.141 282.5,255.5C 282.685,253.804 283.519,252.471 285,251.5C 285.777,248.571 285.61,245.737 284.5,243C 279.763,242.888 275.096,242.722 270.5,242.5C 269.614,243.325 269.281,244.325 269.5,245.5C 272.713,245.19 275.713,245.523 278.5,246.5C 274.671,245.931 271.337,246.598 268.5,248.5C 268.5,249.5 268.5,250.5 268.5,251.5C 267.053,250.866 266.387,249.699 266.5,248C 267.809,244.981 268.809,241.815 269.5,238.5C 271.641,237.048 273.975,236.048 276.5,235.5 Z"/></g>
<g><path style="opacity:1" fill="#803329" d="M 278.5,246.5 C 279.901,246.971 281.234,247.638 282.5,248.5C 281.833,248.833 281.167,249.167 280.5,249.5C 276.547,248.638 272.547,248.305 268.5,248.5C 271.337,246.598 274.671,245.931 278.5,246.5 Z"/></g>
<g><path style="opacity:1" fill="#41814e" d="M 282.5,255.5 C 279.15,255.665 275.817,255.498 272.5,255C 270.676,254.34 269.343,253.173 268.5,251.5C 268.5,250.5 268.5,249.5 268.5,248.5C 272.547,248.305 276.547,248.638 280.5,249.5C 281.167,249.167 281.833,248.833 282.5,248.5C 281.234,247.638 279.901,246.971 278.5,246.5C 275.713,245.523 272.713,245.19 269.5,245.5C 269.281,244.325 269.614,243.325 270.5,242.5C 275.096,242.722 279.763,242.888 284.5,243C 285.61,245.737 285.777,248.571 285,251.5C 283.519,252.471 282.685,253.804 282.5,255.5 Z"/></g>
<g><path style="opacity:1" fill="#5b8b3e" d="M 228.5,255.5 C 234.145,257.546 239.645,259.88 245,262.5C 248.737,270.116 250.903,278.116 251.5,286.5C 246.129,294.205 239.462,300.538 231.5,305.5C 229.251,306.08 227.585,307.413 226.5,309.5C 220.673,312.579 214.673,315.412 208.5,318C 197.805,317.687 187.139,316.854 176.5,315.5C 176.047,314.542 175.381,313.708 174.5,313C 175.571,312.148 176.571,311.315 177.5,310.5C 188.412,307.063 197.078,300.729 203.5,291.5C 210.575,285.092 217.242,278.425 223.5,271.5C 225.41,270.025 226.576,268.025 227,265.5C 227.339,262.12 227.839,258.787 228.5,255.5 Z"/></g>
<g><path style="opacity:1" fill="#8d8d8d" d="M 375.5,259.5 C 376.693,259.97 377.36,260.97 377.5,262.5C 377.36,264.03 376.693,265.03 375.5,265.5C 375.5,263.5 375.5,261.5 375.5,259.5 Z"/></g>
<g><path style="opacity:1" fill="#3b5032" d="M 227.5,255.5 C 227.833,255.5 228.167,255.5 228.5,255.5C 227.839,258.787 227.339,262.12 227,265.5C 226.576,268.025 225.41,270.025 223.5,271.5C 225.055,266.125 226.388,260.792 227.5,255.5 Z"/></g>
<g><path style="opacity:1" fill="#5b8b3f" d="M 370.5,266.5 C 371.152,267.449 371.486,268.615 371.5,270C 368.555,287.95 365.055,305.783 361,323.5C 358.82,327.86 356.653,332.193 354.5,336.5C 350.228,344.101 345.561,351.434 340.5,358.5C 338.05,360.629 336.383,363.296 335.5,366.5C 334.035,367.406 333.035,368.739 332.5,370.5C 330.577,371.308 328.577,371.808 326.5,372C 327.624,372.839 328.291,374.006 328.5,375.5C 328.114,377.932 327.447,380.266 326.5,382.5C 320.925,392.077 313.591,400.077 304.5,406.5C 294.397,407.611 286.397,404.111 280.5,396C 280.836,394.97 281.503,394.47 282.5,394.5C 283.765,395.479 285.099,396.479 286.5,397.5C 288.49,396.127 290.657,395.127 293,394.5C 295.942,388.282 298.609,381.949 301,375.5C 301.667,371.5 301.667,367.5 301,363.5C 297.482,361.664 293.982,359.83 290.5,358C 287.212,354.81 287.879,353.31 292.5,353.5C 301.512,354.371 310.512,354.871 319.5,355C 321.495,352.2 322.495,349.033 322.5,345.5C 322.853,341.087 323.686,336.754 325,332.5C 328.34,323.823 331.673,315.157 335,306.5C 335.5,293.838 335.667,281.171 335.5,268.5C 347.267,268.966 358.934,268.299 370.5,266.5 Z"/></g>
<g><path style="opacity:1" fill="#334628" d="M 223.5,271.5 C 217.242,278.425 210.575,285.092 203.5,291.5C 209.146,283.854 215.812,277.188 223.5,271.5 Z"/></g>
<g><path style="opacity:1" fill="#4e6e45" d="M 164.5,281.5 C 160.306,284.116 155.973,284.116 151.5,281.5C 148.763,283.102 145.763,283.936 142.5,284C 145.062,286.733 147.729,289.233 150.5,291.5C 146.992,290.496 143.826,288.829 141,286.5C 140.801,282.044 142.801,280.711 147,282.5C 148.887,282.031 150.387,281.031 151.5,279.5C 155.418,282.653 159.751,283.319 164.5,281.5 Z"/></g>
<g><path style="opacity:1" fill="#518149" d="M 186.5,283.5 C 181.87,283.308 177.37,283.975 173,285.5C 171.175,285.057 169.342,284.723 167.5,284.5C 167.5,283.5 167.5,282.5 167.5,281.5C 166.5,281.5 165.5,281.5 164.5,281.5C 168.178,277.054 172.512,276.387 177.5,279.5C 182.114,277.395 185.114,278.728 186.5,283.5 Z"/></g>
<g><path style="opacity:1" fill="#333635" d="M 168.5,280.5 C 170.5,280.5 172.5,280.5 174.5,280.5C 174.67,281.822 174.337,282.989 173.5,284C 171.893,283.981 170.226,283.815 168.5,283.5C 168.5,282.5 168.5,281.5 168.5,280.5 Z"/></g>
<g><path style="opacity:1" fill="#284721" d="M 354.5,271.5 C 355.87,277.072 355.703,282.739 354,288.5C 348.432,292.724 344.432,298.058 342,304.5C 342.086,301.298 343.086,298.298 345,295.5C 352.858,289.465 356.024,281.465 354.5,271.5 Z"/></g>
<g><path style="opacity:1" fill="#462e15" d="M 190.5,287.5 C 191.774,288.189 191.774,289.023 190.5,290C 189.041,289.645 187.707,289.811 186.5,290.5C 182.197,289.172 177.864,289.172 173.5,290.5C 172.702,290.043 172.369,289.376 172.5,288.5C 178.455,287.637 184.455,287.303 190.5,287.5 Z"/></g>
<g><path style="opacity:1" fill="#528945" d="M 172.5,288.5 C 172.369,289.376 172.702,290.043 173.5,290.5C 177.864,289.172 182.197,289.172 186.5,290.5C 182.659,292.659 181.992,295.493 184.5,299C 183.205,302.426 181.538,305.593 179.5,308.5C 177.973,308.427 176.973,309.094 176.5,310.5C 174.5,310.5 172.5,310.5 170.5,310.5C 169.533,309.194 168.199,308.527 166.5,308.5C 169.6,306.877 172.933,305.543 176.5,304.5C 177.861,302.972 179.028,301.305 180,299.5C 180.195,301.207 180.195,302.874 180,304.5C 181.363,303.107 182.196,301.441 182.5,299.5C 182.018,296.459 181.351,293.459 180.5,290.5C 178.885,291.154 177.218,291.654 175.5,292C 176.167,292.333 176.833,292.667 177.5,293C 175.167,293.667 172.833,293.667 170.5,293C 168.893,291.951 168.227,290.451 168.5,288.5C 169.833,288.5 171.167,288.5 172.5,288.5 Z"/></g>
<g><path style="opacity:1" fill="#36482c" d="M 203.5,291.5 C 197.078,300.729 188.412,307.063 177.5,310.5C 177.167,310.5 176.833,310.5 176.5,310.5C 176.973,309.094 177.973,308.427 179.5,308.5C 188.611,304.388 196.611,298.721 203.5,291.5 Z"/></g>
<g><path style="opacity:1" fill="#529744" d="M 164.5,281.5 C 165.5,281.5 166.5,281.5 167.5,281.5C 167.5,282.5 167.5,283.5 167.5,284.5C 169.342,284.723 171.175,285.057 173,285.5C 177.37,283.975 181.87,283.308 186.5,283.5C 188.833,283.833 190.167,285.167 190.5,287.5C 184.455,287.303 178.455,287.637 172.5,288.5C 171.167,288.5 169.833,288.5 168.5,288.5C 168.227,290.451 168.893,291.951 170.5,293C 172.833,293.667 175.167,293.667 177.5,293C 176.833,292.667 176.167,292.333 175.5,292C 177.218,291.654 178.885,291.154 180.5,290.5C 181.351,293.459 182.018,296.459 182.5,299.5C 182.196,301.441 181.363,303.107 180,304.5C 180.195,302.874 180.195,301.207 180,299.5C 179.028,301.305 177.861,302.972 176.5,304.5C 172.933,305.543 169.6,306.877 166.5,308.5C 163.316,308.668 162.816,307.334 165,304.5C 165.667,300.833 165.667,297.167 165,293.5C 164,291.167 162.333,289.5 160,288.5C 160.193,290.187 161.193,291.521 163,292.5C 164.169,299.21 163.336,305.544 160.5,311.5C 159.167,311.5 157.833,311.5 156.5,311.5C 156.5,308.167 156.5,304.833 156.5,301.5C 154.102,298.429 152.102,295.095 150.5,291.5C 147.729,289.233 145.062,286.733 142.5,284C 145.763,283.936 148.763,283.102 151.5,281.5C 155.973,284.116 160.306,284.116 164.5,281.5 Z"/></g>
<g><path style="opacity:1" fill="#415335" d="M 370.5,266.5 C 371.568,265.566 372.901,265.232 374.5,265.5C 370.714,280.266 367.881,295.266 366,310.5C 364.382,319.02 361.382,327.02 357,334.5C 356.825,339.019 356.325,343.353 355.5,347.5C 355.815,343.629 355.482,339.962 354.5,336.5C 356.653,332.193 358.82,327.86 361,323.5C 365.055,305.783 368.555,287.95 371.5,270C 371.486,268.615 371.152,267.449 370.5,266.5 Z"/></g>
<g><path style="opacity:1" fill="#32662a" d="M 166.5,308.5 C 164.544,309.492 162.544,310.492 160.5,311.5C 163.336,305.544 164.169,299.21 163,292.5C 161.193,291.521 160.193,290.187 160,288.5C 162.333,289.5 164,291.167 165,293.5C 165.667,297.167 165.667,300.833 165,304.5C 162.816,307.334 163.316,308.668 166.5,308.5 Z"/></g>
<g><path style="opacity:1" fill="#37462d" d="M 231.5,305.5 C 230.415,307.587 228.749,308.92 226.5,309.5C 227.585,307.413 229.251,306.08 231.5,305.5 Z"/></g>
<g><path style="opacity:1" fill="#e5e8e4" d="M 166.5,308.5 C 168.199,308.527 169.533,309.194 170.5,310.5C 167.793,312.024 164.793,313.024 161.5,313.5C 160.702,313.043 160.369,312.376 160.5,311.5C 162.544,310.492 164.544,309.492 166.5,308.5 Z"/></g>
<g><path style="opacity:1" fill="#e1d4cb" d="M 150.5,314.5 C 152.761,316.051 155.261,317.384 158,318.5C 158.494,320.134 158.66,321.801 158.5,323.5C 159.5,323.5 160.5,323.5 161.5,323.5C 161.13,319.814 162.463,318.814 165.5,320.5C 167.203,322.861 168.87,322.861 170.5,320.5C 173.687,322.004 177.021,323.004 180.5,323.5C 207.904,333.469 235.571,342.969 263.5,352C 262.88,360.318 260.88,368.485 257.5,376.5C 257.833,376.833 258.167,377.167 258.5,377.5C 262.822,369.057 264.822,360.224 264.5,351C 236.398,341.799 208.398,332.299 180.5,322.5C 181.209,321.596 182.209,321.263 183.5,321.5C 218.022,333.134 252.688,344.467 287.5,355.5C 288.028,356.721 288.695,357.887 289.5,359C 292.804,361.212 296.304,363.045 300,364.5C 300.658,368.572 300.325,372.572 299,376.5C 296.82,382.188 294.653,387.855 292.5,393.5C 290.323,393.586 288.323,394.253 286.5,395.5C 285.14,394.82 283.807,394.153 282.5,393.5C 281.833,393.167 281.167,392.833 280.5,392.5C 272.73,387.441 264.73,382.608 256.5,378C 231.976,372.048 208.31,363.715 185.5,353C 174.429,349.865 163.429,346.532 152.5,343C 146.101,340.822 140.101,337.988 134.5,334.5C 134.5,332.5 134.5,330.5 134.5,328.5C 136.575,323.455 138.575,318.288 140.5,313C 143.843,313.16 147.176,313.66 150.5,314.5 Z"/></g>
<g><path style="opacity:1" fill="#7d7a76" d="M 152.5,312.5 C 153.609,313.29 154.942,313.79 156.5,314C 154.527,314.495 152.527,314.662 150.5,314.5C 147.176,313.66 143.843,313.16 140.5,313C 138.575,318.288 136.575,323.455 134.5,328.5C 135.059,322.656 136.726,317.156 139.5,312C 144,310.055 148.333,310.222 152.5,312.5 Z"/></g>
<g><path style="opacity:1" fill="#507246" d="M 156.5,301.5 C 156.5,304.833 156.5,308.167 156.5,311.5C 157.833,311.5 159.167,311.5 160.5,311.5C 160.369,312.376 160.702,313.043 161.5,313.5C 164.793,313.024 167.793,312.024 170.5,310.5C 172.5,310.5 174.5,310.5 176.5,310.5C 176.833,310.5 177.167,310.5 177.5,310.5C 176.571,311.315 175.571,312.148 174.5,313C 175.381,313.708 176.047,314.542 176.5,315.5C 179.38,316.57 179.88,318.236 178,320.5C 177.617,319.944 177.117,319.611 176.5,319.5C 171.673,316.127 166.339,314.627 160.5,315C 161.955,316.626 163.622,317.792 165.5,318.5C 165.5,319.167 165.5,319.833 165.5,320.5C 162.463,318.814 161.13,319.814 161.5,323.5C 160.5,323.5 159.5,323.5 158.5,323.5C 158.66,321.801 158.494,320.134 158,318.5C 155.261,317.384 152.761,316.051 150.5,314.5C 152.527,314.662 154.527,314.495 156.5,314C 154.942,313.79 153.609,313.29 152.5,312.5C 153.5,312.5 154.5,312.5 155.5,312.5C 155.185,308.629 155.518,304.962 156.5,301.5 Z"/></g>
<g><path style="opacity:1" fill="#e2d8ce" d="M 176.5,319.5 C 176.631,320.239 176.464,320.906 176,321.5C 172.707,319.792 169.207,318.792 165.5,318.5C 163.622,317.792 161.955,316.626 160.5,315C 166.339,314.627 171.673,316.127 176.5,319.5 Z"/></g>
<g><path style="opacity:1" fill="#efe7e5" d="M 217.5,321.5 C 221.678,322.406 226.012,323.24 230.5,324C 214.431,322.967 198.431,321.134 182.5,318.5C 181.708,317.814 182.208,317.481 184,317.5C 195.13,319.204 206.297,320.537 217.5,321.5 Z"/></g>
<g><path style="opacity:1" fill="#545c49" d="M 226.5,309.5 C 221.738,314.054 216.071,317.22 209.5,319C 212.393,320.149 215.393,320.649 218.5,320.5C 218.5,321.167 218.167,321.5 217.5,321.5C 206.297,320.537 195.13,319.204 184,317.5C 182.208,317.481 181.708,317.814 182.5,318.5C 183.091,319.151 183.757,319.818 184.5,320.5C 184.376,321.107 184.043,321.44 183.5,321.5C 182.209,321.263 181.209,321.596 180.5,322.5C 180.5,322.833 180.5,323.167 180.5,323.5C 177.021,323.004 173.687,322.004 170.5,320.5C 168.87,322.861 167.203,322.861 165.5,320.5C 165.5,319.833 165.5,319.167 165.5,318.5C 169.207,318.792 172.707,319.792 176,321.5C 176.464,320.906 176.631,320.239 176.5,319.5C 177.117,319.611 177.617,319.944 178,320.5C 179.88,318.236 179.38,316.57 176.5,315.5C 187.139,316.854 197.805,317.687 208.5,318C 214.673,315.412 220.673,312.579 226.5,309.5 Z"/></g>
<g><path style="opacity:1" fill="#e2d5cc" d="M 239.5,327.5 C 265.976,333.269 291.976,340.769 317.5,350C 318.756,350.417 319.423,351.25 319.5,352.5C 310.405,353.965 301.238,353.632 292,351.5C 289.992,351.307 288.492,351.974 287.5,353.5C 270.356,348.563 253.356,343.229 236.5,337.5C 238.247,334.466 239.247,331.132 239.5,327.5 Z"/></g>
<g><path style="opacity:1" fill="#776d67" d="M 182.5,318.5 C 198.431,321.134 214.431,322.967 230.5,324C 226.012,323.24 221.678,322.406 217.5,321.5C 218.167,321.5 218.5,321.167 218.5,320.5C 227.117,321.922 235.784,323.255 244.5,324.5C 244.5,324.833 244.5,325.167 244.5,325.5C 243.448,325.351 242.448,325.517 241.5,326C 268.2,332.735 294.534,340.568 320.5,349.5C 320.737,350.791 320.404,351.791 319.5,352.5C 319.423,351.25 318.756,350.417 317.5,350C 291.976,340.769 265.976,333.269 239.5,327.5C 222.511,325.418 205.511,323.584 188.5,322C 204.538,327.068 220.538,332.235 236.5,337.5C 253.356,343.229 270.356,348.563 287.5,353.5C 287.5,354.167 287.5,354.833 287.5,355.5C 252.688,344.467 218.022,333.134 183.5,321.5C 184.043,321.44 184.376,321.107 184.5,320.5C 183.757,319.818 183.091,319.151 182.5,318.5 Z"/></g>
<g><path style="opacity:1" fill="#ccc0b7" d="M 239.5,327.5 C 239.247,331.132 238.247,334.466 236.5,337.5C 220.538,332.235 204.538,327.068 188.5,322C 205.511,323.584 222.511,325.418 239.5,327.5 Z"/></g>
<g><path style="opacity:1" fill="#71655d" d="M 180.5,322.5 C 208.398,332.299 236.398,341.799 264.5,351C 264.822,360.224 262.822,369.057 258.5,377.5C 258.167,377.167 257.833,376.833 257.5,376.5C 260.88,368.485 262.88,360.318 263.5,352C 235.571,342.969 207.904,333.469 180.5,323.5C 180.5,323.167 180.5,322.833 180.5,322.5 Z"/></g>
<g><path style="opacity:1" fill="#d9d3d2" d="M 244.5,325.5 C 249.27,325.692 253.937,326.525 258.5,328C 279.375,334.015 300.041,340.515 320.5,347.5C 320.5,348.167 320.5,348.833 320.5,349.5C 294.534,340.568 268.2,332.735 241.5,326C 242.448,325.517 243.448,325.351 244.5,325.5 Z"/></g>
<g><path style="opacity:1" fill="#645f5c" d="M 150.5,345.5 C 154.18,346.56 157.846,347.726 161.5,349C 164.756,350.116 167.422,351.949 169.5,354.5C 163.174,351.291 156.841,348.291 150.5,345.5 Z"/></g>
<g><path style="opacity:1" fill="#414e31" d="M 322.5,345.5 C 322.495,349.033 321.495,352.2 319.5,355C 310.512,354.871 301.512,354.371 292.5,353.5C 287.879,353.31 287.212,354.81 290.5,358C 293.982,359.83 297.482,361.664 301,363.5C 301.667,367.5 301.667,371.5 301,375.5C 298.609,381.949 295.942,388.282 293,394.5C 290.657,395.127 288.49,396.127 286.5,397.5C 285.099,396.479 283.765,395.479 282.5,394.5C 282.5,394.167 282.5,393.833 282.5,393.5C 283.807,394.153 285.14,394.82 286.5,395.5C 288.323,394.253 290.323,393.586 292.5,393.5C 294.653,387.855 296.82,382.188 299,376.5C 300.325,372.572 300.658,368.572 300,364.5C 296.304,363.045 292.804,361.212 289.5,359C 288.695,357.887 288.028,356.721 287.5,355.5C 287.5,354.833 287.5,354.167 287.5,353.5C 288.492,351.974 289.992,351.307 292,351.5C 301.238,353.632 310.405,353.965 319.5,352.5C 320.404,351.791 320.737,350.791 320.5,349.5C 320.5,348.833 320.5,348.167 320.5,347.5C 321.167,346.833 321.833,346.167 322.5,345.5 Z"/></g>
<g><path style="opacity:1" fill="#625a55" d="M 172.5,358.5 C 174.984,360.8 176.984,363.467 178.5,366.5C 175.529,364.557 173.529,361.891 172.5,358.5 Z"/></g>
<g><path style="opacity:1" fill="#69675c" d="M 340.5,358.5 C 341.167,358.5 341.833,358.5 342.5,358.5C 344.028,358.517 344.528,359.184 344,360.5C 342.601,361.227 341.101,361.727 339.5,362C 338.267,363.667 336.933,365.167 335.5,366.5C 336.383,363.296 338.05,360.629 340.5,358.5 Z"/></g>
<g><path style="opacity:1" fill="#6c6058" d="M 134.5,334.5 C 140.101,337.988 146.101,340.822 152.5,343C 163.429,346.532 174.429,349.865 185.5,353C 208.31,363.715 231.976,372.048 256.5,378C 264.73,382.608 272.73,387.441 280.5,392.5C 280.167,392.5 279.833,392.5 279.5,392.5C 272.059,388.61 264.726,384.444 257.5,380C 241.07,376.134 225.07,370.968 209.5,364.5C 206.7,369.071 205.2,374.071 205,379.5C 203.979,374.186 204.812,369.186 207.5,364.5C 201.195,361.098 194.695,358.098 188,355.5C 187.667,356.5 187.333,357.5 187,358.5C 185.176,354.535 182.01,352.369 177.5,352C 168.213,350.071 159.213,347.238 150.5,343.5C 149.537,343.97 149.537,344.637 150.5,345.5C 148.114,344.627 146.114,343.127 144.5,341C 141.833,340 139.167,339 136.5,338C 135.177,337.184 134.511,336.017 134.5,334.5 Z"/></g>
<g><path style="opacity:1" fill="#e0d4cb" d="M 306.5,407.5 C 311.057,403.447 315.557,399.113 320,394.5C 322.827,390.845 324.993,386.845 326.5,382.5C 330.003,377.498 333.003,372.165 335.5,366.5C 336.933,365.167 338.267,363.667 339.5,362C 341.101,361.727 342.601,361.227 344,360.5C 344.528,359.184 344.028,358.517 342.5,358.5C 342.369,357.624 342.702,356.957 343.5,356.5C 345.422,357.711 347.255,359.044 349,360.5C 351.259,380.531 348.593,399.864 341,418.5C 339.611,420.227 337.944,421.561 336,422.5C 326.207,417.354 316.374,412.354 306.5,407.5 Z"/></g>
<g><path style="opacity:1" fill="#4e6939" d="M 335.5,366.5 C 333.003,372.165 330.003,377.498 326.5,382.5C 327.447,380.266 328.114,377.932 328.5,375.5C 328.291,374.006 327.624,372.839 326.5,372C 328.577,371.808 330.577,371.308 332.5,370.5C 333.035,368.739 334.035,367.406 335.5,366.5 Z"/></g>
<g><path style="opacity:1" fill="#d1c1b8" d="M 279.5,392.5 C 279.489,394.017 278.823,395.184 277.5,396C 274.5,398.333 271.5,400.667 268.5,403C 258.616,406.777 248.949,410.61 239.5,414.5C 237.5,414.5 235.5,414.5 233.5,414.5C 233.736,411.215 234.736,408.215 236.5,405.5C 235.395,403.389 233.729,402.055 231.5,401.5C 228.197,397.844 224.197,395.178 219.5,393.5C 208.688,385.057 196.354,380.224 182.5,379C 181.712,375.924 181.212,372.758 181,369.5C 180.623,368.058 179.79,367.058 178.5,366.5C 176.984,363.467 174.984,360.8 172.5,358.5C 171.026,357.564 170.026,356.23 169.5,354.5C 167.422,351.949 164.756,350.116 161.5,349C 157.846,347.726 154.18,346.56 150.5,345.5C 149.537,344.637 149.537,343.97 150.5,343.5C 159.213,347.238 168.213,350.071 177.5,352C 182.01,352.369 185.176,354.535 187,358.5C 187.333,357.5 187.667,356.5 188,355.5C 194.695,358.098 201.195,361.098 207.5,364.5C 204.812,369.186 203.979,374.186 205,379.5C 205.2,374.071 206.7,369.071 209.5,364.5C 225.07,370.968 241.07,376.134 257.5,380C 264.726,384.444 272.059,388.61 279.5,392.5 Z"/></g>
<g><path style="opacity:1" fill="#3b482e" d="M 326.5,382.5 C 324.993,386.845 322.827,390.845 320,394.5C 315.557,399.113 311.057,403.447 306.5,407.5C 305.833,407.167 305.167,406.833 304.5,406.5C 313.591,400.077 320.925,392.077 326.5,382.5 Z"/></g>
<g><path style="opacity:1" fill="#baaaa2" d="M 196.5,393.5 C 190.952,391.604 186.619,388.271 183.5,383.5C 184.514,382.235 186.014,381.569 188,381.5C 195.275,382.258 202.109,384.425 208.5,388C 211.24,391.724 212.074,395.891 211,400.5C 206.374,397.771 201.541,395.437 196.5,393.5 Z"/></g>
<g><path style="opacity:1" fill="#645852" d="M 178.5,366.5 C 179.79,367.058 180.623,368.058 181,369.5C 181.212,372.758 181.712,375.924 182.5,379C 196.354,380.224 208.688,385.057 219.5,393.5C 217.16,392.914 214.993,391.914 213,390.5C 213.205,396.785 213.538,403.118 214,409.5C 218.626,411.422 223.126,413.422 227.5,415.5C 227.167,415.5 226.833,415.5 226.5,415.5C 222.089,414.307 217.756,412.807 213.5,411C 212.718,408.26 212.218,405.426 212,402.5C 206.604,399.77 201.437,396.77 196.5,393.5C 201.541,395.437 206.374,397.771 211,400.5C 212.074,395.891 211.24,391.724 208.5,388C 202.109,384.425 195.275,382.258 188,381.5C 186.014,381.569 184.514,382.235 183.5,383.5C 182.034,382.653 181.2,381.32 181,379.5C 180.026,375.175 179.193,370.842 178.5,366.5 Z"/></g>
<g><path style="opacity:0.997" fill="#050404" d="M 354.5,336.5 C 355.482,339.962 355.815,343.629 355.5,347.5C 355.386,360.923 354.219,374.257 352,387.5C 347.072,405.619 341.738,423.619 336,441.5C 335.5,450.494 335.334,459.494 335.5,468.5C 319.833,468.5 304.167,468.5 288.5,468.5C 289.962,454.152 289.796,439.819 288,425.5C 287.529,423.754 286.862,422.087 286,420.5C 280.741,424.923 277.741,430.589 277,437.5C 270.869,447.009 266.702,457.342 264.5,468.5C 249.167,468.5 233.833,468.5 218.5,468.5C 222.575,451.047 225.242,433.381 226.5,415.5C 226.833,415.5 227.167,415.5 227.5,415.5C 228.833,415.833 230.167,416.167 231.5,416.5C 234.28,415.922 236.947,415.255 239.5,414.5C 248.949,410.61 258.616,406.777 268.5,403C 271.5,400.667 274.5,398.333 277.5,396C 278.823,395.184 279.489,394.017 279.5,392.5C 279.833,392.5 280.167,392.5 280.5,392.5C 281.167,392.833 281.833,393.167 282.5,393.5C 282.5,393.833 282.5,394.167 282.5,394.5C 281.503,394.47 280.836,394.97 280.5,396C 286.397,404.111 294.397,407.611 304.5,406.5C 305.167,406.833 305.833,407.167 306.5,407.5C 316.374,412.354 326.207,417.354 336,422.5C 337.944,421.561 339.611,420.227 341,418.5C 348.593,399.864 351.259,380.531 349,360.5C 347.255,359.044 345.422,357.711 343.5,356.5C 342.702,356.957 342.369,357.624 342.5,358.5C 341.833,358.5 341.167,358.5 340.5,358.5C 345.561,351.434 350.228,344.101 354.5,336.5 Z"/></g>
<g><path style="opacity:1" fill="#57473e" d="M 219.5,393.5 C 224.197,395.178 228.197,397.844 231.5,401.5C 227.148,399.327 223.148,396.66 219.5,393.5 Z"/></g>
<g><path style="opacity:1" fill="#bdaea4" d="M 219.5,393.5 C 223.148,396.66 227.148,399.327 231.5,401.5C 232.476,402.815 233.476,404.148 234.5,405.5C 232.719,408.956 231.719,412.622 231.5,416.5C 230.167,416.167 228.833,415.833 227.5,415.5C 223.126,413.422 218.626,411.422 214,409.5C 213.538,403.118 213.205,396.785 213,390.5C 214.993,391.914 217.16,392.914 219.5,393.5 Z"/></g>
<g><path style="opacity:1" fill="#594d44" d="M 231.5,401.5 C 233.729,402.055 235.395,403.389 236.5,405.5C 234.736,408.215 233.736,411.215 233.5,414.5C 235.5,414.5 237.5,414.5 239.5,414.5C 236.947,415.255 234.28,415.922 231.5,416.5C 231.719,412.622 232.719,408.956 234.5,405.5C 233.476,404.148 232.476,402.815 231.5,401.5 Z"/></g>
</svg>
